<?xml version="1.0" encoding="UTF-8"?>
<svg id="_Слой_1" data-name="Слой 1" xmlns="http://www.w3.org/2000/svg" viewBox="0 0 128.44 128.44">
  <defs>
    <style>
      .cls-1 {
        fill: #363636;
      }

      .cls-1, .cls-2, .cls-3 {
        stroke-width: 0px;
      }

      .cls-2 {
        fill: #fdc329;
      }

      .cls-3 {
        fill: #fdc32b;
      }
    </style>
  </defs>
  <rect class="cls-1" width="128.44" height="128.44" rx="20" ry="20"/>
  <g>
    <path class="cls-2" d="m104.46,52.86c-1.48-4.07-6.66-6.39-13.98-6.94-3.34-4.08-7.62-7.37-12.49-9.56v4.94c2.34,1.28,4.48,2.86,6.39,4.69.56.54,1.1,1.1,1.62,1.69.12.13.24.27.35.41.49.57.96,1.17,1.41,1.78,3.28,4.5,5.33,9.95,5.65,15.86-3.89,3.13-9.19,6.34-15.42,9.27v5.29c5.83-2.68,10.99-5.71,15.18-8.86-1.31,9.49-7.1,17.56-15.18,21.97v5.39c11.92-5.35,20.23-17.31,20.23-31.23,0-.14,0-.27-.01-.41,5.26-5.13,7.74-10.24,6.25-14.32Zm-10.84-2.41c3.54.59,5.91,1.9,6.65,3.93.74,2.04-.24,4.56-2.57,7.29-.7-4.03-2.11-7.81-4.08-11.22Z"/>
    <path class="cls-2" d="m49.55,93.42c-2.08-1.14-4.02-2.52-5.76-4.1,1.84-.09,3.77-.27,5.76-.54v-4.64c-3.5.6-6.74.92-9.59.95-3.28-4.4-5.37-9.75-5.79-15.56-.03-.35-.05-.7-.06-1.04,0-.14,0-.27-.01-.41,0-.36-.01-.72,0-1.09,0-.06,0-.13,0-.19.02-.89.07-1.78.17-2.65,0,0,0,0,0,0,1.06-9.88,6.97-18.3,15.29-22.86v-4.74c-11.68,5.45-19.77,17.29-19.77,31.02,0,.14,0,.28.01.42-5.26,5.12-7.74,10.23-6.25,14.31,1.48,4.08,6.66,6.4,13.98,6.95,3.24,3.95,7.35,7.16,12.03,9.34v-5.19Zm-21.82-12.63c-.74-2.04.24-4.56,2.57-7.29.7,4.03,2.1,7.81,4.08,11.22-3.53-.59-5.91-1.89-6.65-3.93Z"/>
    <polygon class="cls-2" points="55.82 31.13 55.82 44.34 60.58 39.58 60.58 26.37 55.82 31.13"/>
    <path class="cls-2" d="m68.19,79.09c1.2-.44,2.38-.89,3.54-1.35v-26.33l-4.76-4.76v32.87c.41-.14.81-.28,1.22-.43Z"/>
    <path class="cls-2" d="m60.58,81.5v-35.19l-4.76,4.76v31.7c1.56-.38,3.14-.8,4.76-1.27Z"/>
    <path class="cls-3" d="m55.82,100.92c1.55.38,3.14.66,4.76.82v-15.23c-1.61.43-3.2.81-4.76,1.14v13.27Z"/>
    <path class="cls-3" d="m66.96,84.66v17.11c1.62-.14,3.21-.39,4.76-.75v-18.06c-.62.24-1.24.47-1.87.7-.97.35-1.93.68-2.89,1Z"/>
    <polygon class="cls-2" points="71.72 31.13 71.72 44.34 66.96 39.58 66.96 26.37 71.72 31.13"/>
  </g>
</svg>